<svg width="500" height="500" viewBox="0 0 500 500" fill="none" xmlns="http://www.w3.org/2000/svg">
<path d="M329 505.16C426.204 505.16 505 426.324 505 329.08C505 231.836 426.204 153 329 153C231.796 153 153 231.836 153 329.08C153 426.324 231.796 505.16 329 505.16Z" fill="#F6921A" stroke="white" stroke-width="10"/>
<path d="M297.337 271.969C294.666 265.005 287.986 265.192 282.402 263.856C277.873 262.773 275.722 261.771 277.258 256.09C281.133 241.99 280.772 241.869 294.96 245.398C300.998 246.895 307.05 248.365 313.035 250.063C317.203 251.252 319.287 249.715 320.222 245.679C321.839 238.742 323.829 231.899 325.285 224.935C326.02 221.46 327.45 220.778 330.803 221.473C345.578 224.481 345.605 224.374 341.985 238.755C341.397 241.121 340.836 243.5 340.248 245.879C337.883 255.502 337.963 255.235 347.529 257.761C352.151 259.018 353.273 257.467 354.101 253.431C355.437 246.748 357.468 240.065 359.004 233.382C359.712 230.241 360.674 229.065 364.348 229.894C379.217 233.195 379.23 233.008 375.597 247.59C374.261 252.762 371.348 258.443 372.497 263.054C373.833 268.173 381.194 267.959 385.79 270.352C406.47 281.164 413.644 295.987 407.165 315.421C403.865 325.218 399.256 329.735 387.019 335.175C387.153 335.549 387.193 336.057 387.46 336.258C404.44 348.567 408.541 358.779 403.611 376.515C398 396.71 386.244 406.895 366.673 408.512C359.135 409.307 351.519 408.901 344.109 407.309C337.509 405.746 334.944 407.697 333.982 414.193C333.074 420.327 330.923 426.222 329.681 432.356C328.946 435.898 327.703 437.048 323.856 436.246C309.161 433.239 309.161 433.386 312.834 418.964C313.518 415.47 314.411 412.02 315.506 408.632C317.51 403.46 316.041 401.589 310.657 399.945C303.803 397.873 301.185 399.517 300.156 406.374C299.235 412.509 297.164 418.403 295.828 424.538C295.106 427.892 293.65 428.614 290.257 427.879C275.562 424.725 275.562 424.832 279.102 410.504C283.524 392.674 283.524 392.687 265.849 388.384C260.506 387.047 255.082 385.563 249.658 384.374C246.679 383.732 246.425 382.623 247.28 379.749C247.788 378.039 248.509 376.194 249.11 374.604C254.734 359.741 254.721 362.574 267.813 365.061C272.382 365.929 276.136 364.927 277.312 360.182C284.205 332.582 290.885 304.915 297.631 277.315C297.947 275.534 297.846 273.704 297.337 271.969Z" fill="#FEFEFE"/>
<path d="M365.471 368.068C362.799 376.555 357.375 380.578 346.995 381.313C335.038 382.169 323.616 379.135 312.167 376.248C309.147 375.473 308.894 373.695 309.495 371.262C312.247 360.035 315.079 348.822 317.791 337.581C318.379 335.122 319.594 334.28 322.066 334.908C333.315 337.581 344.777 339.907 354.756 346.015C359.713 349.009 364.469 352.43 365.564 358.806C366.214 361.862 366.183 365.025 365.471 368.068Z" fill="#F6921A"/>
<path d="M340.288 318.628C323.041 317.051 323.041 317.051 326.928 301.132C328.518 294.677 330.161 288.248 331.804 281.819C332.232 280.162 332.312 277.809 334.877 278.451C347.395 281.218 361.703 282.14 369.318 293.768C370.059 294.843 370.602 296.043 370.921 297.31C372.04 301.25 371.984 305.43 370.76 309.339C366.379 319.149 355.825 322.544 341.37 318.842L340.288 318.628Z" fill="#F6931A"/>
<circle cx="161" cy="161" r="166" fill="#F0F0F0" stroke="white" stroke-width="10"/>
<path d="M157.759 48.6717C163.11 45.8797 169.643 52.3568 166.799 57.7063C165.148 62.067 158.887 63.2265 155.689 59.9026C152.3 56.7126 153.405 50.4074 157.759 48.6717ZM100.197 54.8798C103.448 53.5409 107.564 56.5209 107.232 60.066C107.577 63.9144 102.874 66.747 99.5601 64.918C95.1698 63.2167 95.672 56.0861 100.197 54.8798ZM218.09 65.0261C213.009 64.4119 212.205 56.4202 217.096 54.8111C220.89 52.9599 224.37 56.4313 224.925 60.0291C224.13 63.1012 221.559 65.9142 218.09 65.0261ZM113.295 79.3917C118.73 75.9523 126.485 81.0745 125.649 87.3907C125.367 93.7684 116.9 97.4633 112.123 93.1517C107.505 89.7652 108.204 81.9958 113.295 79.3917ZM196.264 83.0411C198.689 76.7888 208.515 76.5996 211.274 82.6861C214.002 87.4227 210.647 93.2881 205.787 94.8985C199.349 96.101 193.233 89.1375 196.264 83.0411ZM150.827 94.5435C150.774 89.1694 155.667 85.165 160.771 84.7989C164.157 85.4782 167.848 86.9215 169.3 90.34C172.007 95.0557 169.604 101.549 164.712 103.713C162.475 104.967 159.831 104.497 157.395 104.351C153.672 102.522 150.536 98.9348 150.827 94.5435ZM65.2247 102.374C70.1896 99.3205 76.888 104.894 75.0084 110.29C73.9734 114.958 67.7023 116.857 64.1173 113.877C60.2906 111.084 60.8971 104.372 65.2247 102.374ZM249.044 102.364C253.256 99.0921 260.207 102.846 259.705 108.167C259.988 113.019 253.978 116.678 249.796 114.18C245.191 112.109 244.721 105.02 249.044 102.364ZM174.9 112.025C181.851 109.527 190.108 112.517 194.069 118.718C199.296 126.298 196.515 137.842 188.405 142.191C180.001 147.336 167.73 142.975 164.626 133.586C161.103 125.18 166.236 114.66 174.9 112.025ZM134.115 112.852C141.819 109.214 152.187 112.266 155.908 120.151C160.288 127.826 156.902 138.512 149.073 142.475C141.234 146.929 130.174 143.552 126.381 135.313C122.127 127.344 125.904 116.521 134.115 112.852ZM93.2779 126.821C93.8636 121.855 98.546 118.623 103.27 118.289C108.36 118.903 112.427 122.858 112.98 128.012C112.646 133.115 108.705 138.102 103.301 138.071C97.3552 138.584 92.1423 132.665 93.2779 126.821ZM213.898 119.369C220.002 115.814 228.478 120.989 228.207 128.005C228.626 135.439 219.245 140.678 213.166 136.317C206.852 132.686 207.345 122.46 213.898 119.369ZM117.518 145.569C124.657 143.604 132.82 146.971 136.321 153.536C140.157 160.145 138.589 169.326 132.632 174.173C124.992 181.283 110.902 178.428 106.836 168.725C102.163 159.831 107.839 147.911 117.518 145.569ZM194.875 145.533C201.815 143.546 209.968 146.223 213.699 152.549C218.632 159.784 216.277 170.575 208.933 175.239C201.24 180.655 189.324 177.811 185.091 169.343C179.959 160.584 185.123 148.204 194.875 145.533ZM71.6002 153.787C77.767 151.453 84.6029 158.262 82.1045 164.379C80.5785 169.952 72.7285 172.012 68.6734 167.903C63.9283 164.045 65.6851 155.46 71.6002 153.787ZM238.753 162.664C238.575 157.552 242.313 153.024 247.553 152.742C251.777 153.411 255.883 156.82 255.549 161.42C255.936 167.496 248.619 171.625 243.445 168.771C241.021 167.537 239.777 165.049 238.753 162.664ZM41.2782 156.788C44.9884 155.168 49.5776 158.385 48.7304 162.507C48.5315 167.175 41.6441 168.97 39.1138 165.07C36.8781 162.361 38.2163 158.185 41.2782 156.788ZM275.21 156.695C277.823 154.834 282.014 156.171 283.049 159.225C284.805 162.56 281.586 167.129 277.834 166.566C272.567 167.046 270.863 159.015 275.21 156.695ZM137.67 179.101C147.432 176.561 157.927 184.706 157.988 194.764C158.625 204.927 148.289 213.94 138.296 211.592C130.571 210.348 124.51 202.903 124.76 195.093C124.739 187.623 130.373 180.681 137.67 179.101ZM176.333 179.08C186.241 176.309 197.049 184.6 196.892 194.89C197.415 204.866 187.402 213.575 177.617 211.596C168.409 210.404 161.615 200.283 164.186 191.343C165.483 185.385 170.458 180.541 176.333 179.08ZM101.787 185.271C108.644 184.1 115.072 191.754 112.292 198.268C110.263 205.21 100.167 207.093 95.7027 201.423C90.4665 195.977 94.3755 186.023 101.787 185.271ZM215.172 185.577C221.286 183.015 228.791 188.306 228.321 194.946C228.567 202.254 219.301 207.294 213.322 203.028C206.55 199.198 207.783 187.927 215.172 185.577ZM246.865 217.382C244.471 212.916 248.819 206.998 253.774 207.825C256.241 207.783 257.966 209.728 259.544 211.359C259.869 214.005 260.412 217.162 258.217 219.201C255.236 222.975 248.484 221.898 246.865 217.382ZM65.2039 209.068C69.8348 205.984 76.4988 210.584 75.4577 216.001C74.904 220.791 68.8723 223.529 64.8994 220.811C60.6355 218.343 60.7927 211.317 65.2039 209.068ZM156.693 219.096C162.755 216.42 170.479 221.7 169.904 228.381C170.354 235.764 160.801 240.876 154.873 236.443C148.289 232.636 149.387 221.438 156.693 219.096ZM114.318 228.987C119.482 226.269 126.411 230.963 125.941 236.745C126.098 241.493 121.467 245.539 116.785 244.838C112.907 244.754 110.378 241.275 109.134 237.968C109.198 234.362 110.681 230.347 114.318 228.987ZM200.153 229.071C205.463 225.787 213.009 230.503 212.507 236.686C212.643 243.149 204.114 247.288 199.17 243.043C194.384 239.715 194.968 231.716 200.153 229.071ZM215.079 265.991C212.717 262.415 215.498 258.108 219.333 257.292C222.417 257.92 225.678 260.24 225.03 263.817C224.58 268.658 217.504 270.143 215.079 265.991ZM96.5915 262.886C97.532 260.052 99.8106 257.236 103.145 257.973C108.006 258.318 109.448 265.647 105.194 267.906C101.369 270.487 96.9304 266.953 96.5915 262.886ZM153.755 266.137C154.686 261.945 160.11 259.906 163.685 262.133C166.047 263.148 166.737 265.792 167.343 268.04C167.019 269.211 166.729 270.383 166.445 271.553C164.981 273.289 163.1 275.025 160.665 274.962C156.138 275.493 152.055 270.373 153.755 266.137Z" fill="#1F5DB4"/>
</svg>
