<svg width="500" height="500" viewBox="0 0 500 500" fill="none" xmlns="http://www.w3.org/2000/svg">
<path d="M329 505.16C426.204 505.16 505 426.324 505 329.08C505 231.836 426.204 153 329 153C231.796 153 153 231.836 153 329.08C153 426.324 231.796 505.16 329 505.16Z" fill="#F6921A" stroke="white" stroke-width="10"/>
<path d="M297.337 271.969C294.666 265.005 287.986 265.192 282.402 263.856C277.873 262.773 275.722 261.771 277.258 256.09C281.133 241.99 280.772 241.869 294.96 245.398C300.998 246.895 307.05 248.365 313.035 250.063C317.203 251.252 319.287 249.715 320.222 245.679C321.839 238.742 323.829 231.899 325.285 224.935C326.02 221.46 327.45 220.778 330.803 221.473C345.578 224.481 345.605 224.374 341.985 238.755C341.397 241.121 340.836 243.5 340.248 245.879C337.883 255.502 337.963 255.235 347.529 257.761C352.151 259.018 353.273 257.467 354.101 253.431C355.437 246.748 357.468 240.065 359.004 233.382C359.712 230.241 360.674 229.065 364.348 229.894C379.217 233.195 379.23 233.008 375.597 247.59C374.261 252.762 371.348 258.443 372.497 263.054C373.833 268.173 381.194 267.959 385.79 270.352C406.47 281.164 413.644 295.987 407.165 315.421C403.865 325.218 399.256 329.735 387.019 335.175C387.153 335.549 387.193 336.057 387.46 336.258C404.44 348.567 408.541 358.779 403.611 376.515C398 396.71 386.244 406.895 366.673 408.512C359.135 409.307 351.519 408.901 344.109 407.309C337.509 405.746 334.944 407.697 333.982 414.193C333.074 420.327 330.923 426.222 329.681 432.356C328.946 435.898 327.703 437.048 323.856 436.246C309.161 433.239 309.161 433.386 312.834 418.964C313.518 415.47 314.411 412.02 315.506 408.632C317.51 403.46 316.041 401.589 310.657 399.945C303.803 397.873 301.185 399.517 300.156 406.374C299.235 412.509 297.164 418.403 295.828 424.538C295.106 427.892 293.65 428.614 290.257 427.879C275.562 424.725 275.562 424.832 279.102 410.504C283.524 392.674 283.524 392.687 265.849 388.384C260.506 387.047 255.082 385.563 249.658 384.374C246.679 383.732 246.425 382.623 247.28 379.749C247.788 378.039 248.509 376.194 249.11 374.604C254.734 359.741 254.721 362.574 267.813 365.061C272.382 365.929 276.136 364.927 277.312 360.182C284.205 332.582 290.885 304.915 297.631 277.315C297.947 275.534 297.846 273.704 297.337 271.969Z" fill="#FEFEFE"/>
<path d="M365.471 368.068C362.799 376.555 357.375 380.578 346.995 381.313C335.038 382.169 323.616 379.135 312.167 376.248C309.147 375.473 308.894 373.695 309.495 371.262C312.247 360.035 315.079 348.822 317.791 337.581C318.379 335.122 319.594 334.28 322.066 334.908C333.315 337.581 344.777 339.907 354.756 346.015C359.713 349.009 364.469 352.43 365.564 358.806C366.214 361.862 366.183 365.025 365.471 368.068Z" fill="#F6921A"/>
<path d="M340.288 318.628C323.041 317.051 323.041 317.051 326.928 301.132C328.518 294.677 330.161 288.248 331.804 281.819C332.232 280.162 332.312 277.809 334.877 278.451C347.395 281.218 361.703 282.14 369.318 293.768C370.059 294.843 370.602 296.043 370.921 297.31C372.04 301.25 371.984 305.43 370.76 309.339C366.379 319.149 355.825 322.544 341.37 318.842L340.288 318.628Z" fill="#F6931A"/>
<circle cx="160" cy="160" r="166" fill="#F0F0F0" stroke="white" stroke-width="10"/>
<g filter="url(#filter0_d)">
<path d="M160.312 320.625C248.851 320.625 320.625 248.851 320.625 160.312C320.625 71.7744 248.851 0 160.312 0C71.7744 0 0 71.7744 0 160.312C0 248.851 71.7744 320.625 160.312 320.625Z" fill="black"/>
</g>
<path d="M160.312 320.625C248.851 320.625 320.625 248.851 320.625 160.312C320.625 71.7744 248.851 0 160.312 0C71.7744 0 0 71.7744 0 160.312C0 248.851 71.7744 320.625 160.312 320.625Z" fill="#FF5000"/>
<path style="mix-blend-mode:soft-light" d="M160.312 320.625C248.851 320.625 320.625 248.851 320.625 160.312C320.625 71.7744 248.851 0 160.312 0C71.7744 0 0 71.7744 0 160.312C0 248.851 71.7744 320.625 160.312 320.625Z" fill="url(#paint0_linear)"/>
<path d="M160.312 315.281C245.899 315.281 315.281 245.899 315.281 160.312C315.281 74.7256 245.899 5.34375 160.312 5.34375C74.7256 5.34375 5.34375 74.7256 5.34375 160.312C5.34375 245.899 74.7256 315.281 160.312 315.281Z" stroke="black" stroke-opacity="0.097"/>
<g filter="url(#filter1_d)">
<path d="M53.4375 240.469L160.858 58.7812L267.188 240.223L53.4375 240.469ZM160.601 132.311L116.697 204.837H204.708L160.601 132.311Z" fill="black"/>
</g>
<path d="M53.4375 240.469L160.858 58.7812L267.188 240.223L53.4375 240.469ZM160.601 132.311L116.697 204.837H204.708L160.601 132.311Z" fill="white"/>
<defs>
<filter id="filter0_d" x="-1" y="-0.5" width="322.625" height="322.625" filterUnits="userSpaceOnUse" color-interpolation-filters="sRGB">
<feFlood flood-opacity="0" result="BackgroundImageFix"/>
<feColorMatrix in="SourceAlpha" type="matrix" values="0 0 0 0 0 0 0 0 0 0 0 0 0 0 0 0 0 0 127 0" result="hardAlpha"/>
<feOffset dy="0.5"/>
<feGaussianBlur stdDeviation="0.5"/>
<feColorMatrix type="matrix" values="0 0 0 0 0 0 0 0 0 0 0 0 0 0 0 0 0 0 0.199474 0"/>
<feBlend mode="normal" in2="BackgroundImageFix" result="effect1_dropShadow"/>
<feBlend mode="normal" in="SourceGraphic" in2="effect1_dropShadow" result="shape"/>
</filter>
<filter id="filter1_d" x="52.4375" y="58.2812" width="215.75" height="183.688" filterUnits="userSpaceOnUse" color-interpolation-filters="sRGB">
<feFlood flood-opacity="0" result="BackgroundImageFix"/>
<feColorMatrix in="SourceAlpha" type="matrix" values="0 0 0 0 0 0 0 0 0 0 0 0 0 0 0 0 0 0 127 0" result="hardAlpha"/>
<feOffset dy="0.5"/>
<feGaussianBlur stdDeviation="0.5"/>
<feColorMatrix type="matrix" values="0 0 0 0 0 0 0 0 0 0 0 0 0 0 0 0 0 0 0.204257 0"/>
<feBlend mode="normal" in2="BackgroundImageFix" result="effect1_dropShadow"/>
<feBlend mode="normal" in="SourceGraphic" in2="effect1_dropShadow" result="shape"/>
</filter>
<linearGradient id="paint0_linear" x1="160.312" y1="0" x2="160.312" y2="320.625" gradientUnits="userSpaceOnUse">
<stop stop-color="white" stop-opacity="0.5"/>
<stop offset="1" stop-opacity="0.5"/>
</linearGradient>
</defs>
</svg>
