<svg width="500" height="500" viewBox="0 0 500 500" fill="none" xmlns="http://www.w3.org/2000/svg">
<path d="M331 500.16C425.441 500.16 502 423.565 502 329.08C502 234.595 425.441 158 331 158C236.559 158 160 234.595 160 329.08C160 423.565 236.559 500.16 331 500.16Z" fill="#F6921A"/>
<path d="M299.337 271.969C296.666 265.005 289.986 265.192 284.402 263.856C279.873 262.773 277.722 261.771 279.258 256.09C283.133 241.99 282.772 241.869 296.96 245.398C302.998 246.895 309.05 248.365 315.035 250.063C319.203 251.252 321.287 249.715 322.222 245.679C323.839 238.742 325.829 231.899 327.285 224.935C328.02 221.46 329.45 220.778 332.803 221.473C347.578 224.481 347.605 224.374 343.985 238.755C343.397 241.121 342.836 243.5 342.248 245.879C339.883 255.502 339.963 255.235 349.529 257.761C354.151 259.018 355.273 257.467 356.101 253.431C357.437 246.748 359.468 240.065 361.004 233.382C361.712 230.241 362.674 229.065 366.348 229.894C381.217 233.195 381.23 233.008 377.597 247.59C376.261 252.762 373.348 258.443 374.497 263.054C375.833 268.173 383.194 267.959 387.79 270.352C408.47 281.164 415.644 295.987 409.165 315.421C405.865 325.218 401.256 329.735 389.019 335.175C389.153 335.549 389.193 336.057 389.46 336.258C406.44 348.567 410.541 358.779 405.611 376.515C400 396.71 388.244 406.895 368.673 408.512C361.135 409.307 353.519 408.901 346.109 407.309C339.509 405.746 336.944 407.697 335.982 414.193C335.074 420.327 332.923 426.222 331.681 432.356C330.946 435.898 329.703 437.048 325.856 436.246C311.161 433.239 311.161 433.386 314.834 418.964C315.518 415.47 316.411 412.02 317.506 408.632C319.51 403.46 318.041 401.589 312.657 399.945C305.803 397.873 303.185 399.517 302.156 406.374C301.235 412.509 299.164 418.403 297.828 424.538C297.106 427.892 295.65 428.614 292.257 427.879C277.562 424.725 277.562 424.832 281.102 410.504C285.524 392.674 285.524 392.687 267.849 388.384C262.506 387.047 257.082 385.563 251.658 384.374C248.679 383.732 248.425 382.623 249.28 379.749C249.788 378.039 250.509 376.194 251.11 374.604C256.734 359.741 256.721 362.574 269.813 365.061C274.382 365.929 278.136 364.927 279.312 360.182C286.205 332.582 292.885 304.915 299.631 277.315C299.947 275.534 299.846 273.704 299.337 271.969Z" fill="#FEFEFE"/>
<path d="M367.471 368.068C364.799 376.555 359.375 380.578 348.995 381.313C337.038 382.169 325.616 379.135 314.167 376.248C311.147 375.472 310.894 373.695 311.495 371.262C314.247 360.035 317.079 348.821 319.791 337.581C320.379 335.122 321.594 334.279 324.066 334.908C335.315 337.581 346.777 339.906 356.756 346.015C361.713 349.008 366.469 352.43 367.564 358.805C368.214 361.862 368.183 365.025 367.471 368.068Z" fill="#F6921A"/>
<path d="M342.288 318.628C325.041 317.051 325.041 317.051 328.928 301.133C330.518 294.677 332.161 288.248 333.804 281.819C334.232 280.162 334.312 277.81 336.877 278.451C349.395 281.218 363.703 282.14 371.318 293.768C372.059 294.844 372.602 296.043 372.921 297.31C374.04 301.25 373.984 305.431 372.76 309.339C368.379 319.15 357.825 322.544 343.37 318.842L342.288 318.628Z" fill="#F6931A"/>
<path d="M-4.97363 173.953V173.142V168.515V167.989L-4.86398 167.474C-4.80407 167.193 -4.78564 166.904 -4.80928 166.617L-4.8262 166.412V166.206V164.786C-4.83447 164.664 -4.83905 164.55 -4.84131 164.446C-4.84314 164.362 -4.84349 164.282 -4.8429 164.207L-4.97363 163.953V162.743V161.875V161.563L-4.93481 161.253C-4.65176 158.995 -4.52547 156.719 -4.55687 154.444L-4.55791 154.368L-4.55667 154.293C-4.44428 147.44 -3.2099 140.852 -1.94023 134.664L-1.93956 134.66C0.450079 123.052 4.04258 111.725 8.77969 100.863C15.0093 86.4973 23.1105 73.0197 32.8725 60.781L32.8767 60.7756C38.1301 54.2078 43.8379 48.0175 49.9581 42.2503C76.7083 16.9541 110.722 0.706642 147.197 -4.19714C148.889 -4.42869 152.179 -4.62389 155.065 -4.75304C157.862 -4.87815 160.794 -4.96365 162.027 -4.92839H165.703C166.731 -4.98395 169.058 -5 171.061 -5C173.064 -5 175.391 -4.98395 176.419 -4.92839H180.159H180.172C190.756 -4.90074 201.301 -3.63108 211.59 -1.14541C226.571 2.3998 241.029 7.87824 254.6 15.1523C265.482 20.9781 275.714 27.9453 285.123 35.9363C290.18 40.213 294.997 44.7663 299.552 49.5751L299.555 49.5782C317.88 68.9569 331.591 92.2293 339.667 117.656C343.008 127.953 345.284 138.565 346.459 149.327L346.462 149.351L346.464 149.375C346.887 153.626 346.965 157.858 347.009 161.899L347.009 161.926V161.953V164.878C347.037 165.448 347.046 166.33 347.053 167.097C347.063 168.234 347.068 169.674 347.068 171.106C347.068 172.539 347.063 173.977 347.053 175.11C347.046 175.854 347.038 176.731 347.009 177.308V180.216V180.22C347.002 190.751 345.746 201.244 343.265 211.479C337.073 237.913 324.854 262.555 307.565 283.478C302.804 289.25 297.696 294.726 292.269 299.875C284.006 307.716 274.989 314.721 265.349 320.788C243.948 334.334 219.875 343.09 194.778 346.454L194.724 346.462L194.67 346.468C191.703 346.8 188.72 346.978 185.734 347.002C185.416 347.012 184.999 347.036 184.519 347.064C183.236 347.138 181.507 347.237 180.038 347.167H176.282H176.097L175.913 347.154C175.347 347.112 174.778 347.14 174.218 347.239L173.788 347.315H173.351H168.737H168.297L167.864 347.238C167.313 347.14 166.752 347.112 166.194 347.153L166.008 347.167H165.823H161.946H161.932C151.427 347.138 140.963 345.874 130.752 343.402C115.769 339.879 101.308 334.419 87.7342 327.158M-4.97363 173.953L90.0926 322.749M-4.97363 173.953L-4.81355 174.433M-4.97363 173.953L-4.81355 174.433M87.7342 327.158L90.0926 322.749M87.7342 327.158C87.7345 327.158 87.7347 327.158 87.7349 327.158L90.0926 322.749M87.7342 327.158C76.82 321.322 66.5566 314.341 57.1171 306.333M90.0926 322.749C79.4882 317.079 69.5163 310.296 60.3451 302.515M57.1171 306.333C57.1183 306.334 57.1195 306.335 57.1206 306.336L60.3451 302.515M57.1171 306.333C57.1149 306.331 57.1126 306.329 57.1104 306.328L60.3451 302.515M57.1171 306.333L60.3451 302.515M-4.81355 174.433C-4.81565 174.51 -4.81904 174.593 -4.82428 174.719L-4.82477 174.731C-4.82949 174.844 -4.83582 174.995 -4.84008 175.152C-4.84733 175.42 -4.85136 175.78 -4.8262 176.189V177.444C-4.83449 177.567 -4.83906 177.681 -4.84132 177.785C-4.84303 177.864 -4.84344 177.94 -4.84299 178.011L-4.81355 174.433ZM21.1151 264.794C21.1176 264.798 21.1201 264.802 21.1227 264.806L25.3594 262.151L21.1111 264.788C21.1124 264.79 21.1137 264.792 21.1151 264.794ZM2.31778 223.952C2.31929 223.956 2.32081 223.961 2.32232 223.966L7.08596 222.447L2.31352 223.938C2.31494 223.943 2.31636 223.947 2.31778 223.952ZM-4.82652 182.058L-4.17259 183.07C-4.40916 182.704 -4.56484 182.331 -4.66125 181.984C-4.678 181.924 -4.69296 181.865 -4.70625 181.807C-4.70971 181.792 -4.71305 181.776 -4.71626 181.762C-4.79146 181.412 -4.79741 181.143 -4.79687 181.026C-4.79662 180.97 -4.794 180.923 -4.79411 180.923C-4.7942 180.923 -4.79579 180.949 -4.801 181.015L-4.8026 181.036C-4.81134 181.145 -4.83487 181.439 -4.83487 181.762V181.877L-4.82954 181.992C-4.82853 182.014 -4.82752 182.036 -4.82652 182.058Z" fill="#8AC54B" stroke="white" stroke-width="10"/>
<path d="M0.0263672 173.142C0.503367 174.08 0.269203 175.078 0.286549 176.059C0.173803 176.259 0.0870762 176.25 0.0263672 176.059V173.142Z" fill="#99CD62"/>
<path d="M0.286549 166.181C0.41596 166.968 0.325934 167.776 0.0263672 168.516L0.0263672 166.207C0.0899671 165.993 0.176694 165.984 0.286549 166.181Z" fill="#99CC62"/>
<path d="M0.260531 177.786C0.217167 178.359 0.572748 178.984 0.0263672 179.522V177.786C0.13044 177.572 0.208494 177.572 0.260531 177.786Z" fill="#CAE5AD"/>
<path d="M0.0263672 162.743C0.572748 163.247 0.217167 163.88 0.260531 164.479C0.208494 164.699 0.13044 164.699 0.0263672 164.479V162.743Z" fill="#CAE5AD"/>
<path d="M0.0260182 164.479C0.103155 164.462 0.183044 164.462 0.260182 164.479V166.215H0L0.0260182 164.479Z" fill="#B4DA8B"/>
<path d="M0.260531 177.786C0.182709 177.795 0.104189 177.795 0.0263672 177.786L0.0263672 176.05H0.286549L0.260531 177.786Z" fill="#B4DA8B"/>
<path d="M218.153 147.639C222.188 148.27 226.136 149.362 229.922 150.894C239.262 154.809 246.903 160.686 251.17 170.156C257.284 183.732 255.619 196.536 246.92 208.489C239.219 219.079 228.751 225.546 216.228 228.862C214.042 229.435 211.891 230.042 209.671 230.52C208.665 230.746 208.492 231.093 208.743 232.091C211.146 241.527 213.47 250.988 215.889 260.424C216.202 261.631 215.889 262.021 214.788 262.29C209.584 263.54 204.442 264.808 199.299 266.188C198.058 266.526 197.642 266.24 197.356 265.051C195.066 255.78 192.707 246.527 190.418 237.273C190.123 236.041 189.785 235.65 188.44 236.032C184.564 237.108 180.635 238.063 176.724 238.975C175.518 239.252 175.232 239.66 175.553 240.902C177.955 250.294 180.262 259.703 182.664 269.096C182.924 270.111 182.708 270.424 181.797 270.649C176.446 271.978 171.095 273.314 165.77 274.729C164.625 275.033 164.4 274.564 164.165 273.653C161.798 264.304 159.378 254.964 157.062 245.606C156.742 244.322 156.291 244.192 155.137 244.487C143.533 247.473 131.917 250.43 120.29 253.358C118.608 253.783 118.625 253.783 118.556 252.073C118.365 245.294 118.2 238.515 117.957 231.735C117.957 230.65 118.287 230.251 119.284 229.999C123.109 229.088 126.907 228.089 130.723 227.135C134.982 226.058 136.907 222.933 135.832 218.671C129.755 194.424 123.661 170.179 117.55 145.938C116.743 142.726 115.98 139.506 115.104 136.311C114.808 135.117 114.279 133.994 113.547 133.005C112.815 132.017 111.895 131.184 110.839 130.553C109.784 129.923 108.614 129.508 107.397 129.333C106.181 129.157 104.942 129.225 103.751 129.532C98.9899 130.643 94.2113 131.85 89.5193 133.091C88.5567 133.343 88.1924 133.247 87.9409 132.223C86.559 126.488 85.1136 120.765 83.6045 115.053C83.3444 114.037 83.4831 113.655 84.5412 113.386C96.3534 110.435 108.148 107.423 119.969 104.48C121.209 104.176 121.392 103.742 121.088 102.562C118.694 93.265 116.396 83.9509 113.985 74.6629C113.647 73.3695 114.054 73.0223 115.191 72.7445C120.394 71.4771 125.598 70.1664 130.801 68.8123C131.868 68.5345 132.198 68.7602 132.458 69.8192C134.791 79.2288 137.202 88.6123 139.526 98.0219C139.795 99.1243 140.107 99.3934 141.261 99.0896C145.285 97.9958 149.344 97.0063 153.403 96.0341C154.374 95.7997 154.686 95.5132 154.4 94.3935C151.989 85.0012 149.691 75.583 147.28 66.1995C146.959 64.9755 147.28 64.6196 148.39 64.3505C153.593 63.0919 158.728 61.8245 163.871 60.453C165.093 60.1318 165.527 60.3922 165.822 61.5901C168.12 70.9042 170.479 80.2097 172.76 89.5324C173.064 90.7564 173.454 91.1036 174.755 90.7477C185.327 87.8831 195.812 87.9179 206.115 91.989C217.242 96.39 224.796 104.063 227.797 115.834C229.931 124.332 228.448 132.327 223.981 139.792C222.269 142.572 220.319 145.197 218.153 147.639Z" fill="#FEFEFE"/>
<path d="M193.427 169.097C199.027 169.005 204.544 170.456 209.376 173.29C211.297 174.399 212.973 175.887 214.303 177.664C215.633 179.44 216.589 181.468 217.114 183.625C217.638 185.781 217.72 188.022 217.355 190.212C216.989 192.401 216.184 194.493 214.988 196.362C210.356 203.897 203.418 208.315 195.101 210.633C187.062 212.864 178.944 214.8 170.878 216.909C169.916 217.161 169.612 216.831 169.395 215.989C166.198 203.142 162.977 190.298 159.734 177.456C159.534 176.667 159.63 176.311 160.428 176.128C169.439 174.028 178.328 171.424 187.408 169.601C189.389 169.203 191.408 169.034 193.427 169.097Z" fill="#8AC54B"/>
<path d="M194.824 131.259C194.763 137.735 191.884 142.162 187.842 145.955C184.441 149.109 180.297 151.349 175.796 152.466C169.213 154.202 162.613 155.842 156.031 157.578C155.077 157.83 154.739 157.691 154.487 156.71C151.556 144.934 148.584 133.169 145.572 121.416C145.355 120.548 145.433 120.235 146.352 120.009C153.568 118.273 160.732 116.268 168.034 114.758C171.349 114.002 174.784 113.929 178.128 114.543C181.472 115.158 184.656 116.448 187.487 118.334C189.672 119.724 191.484 121.629 192.763 123.882C194.042 126.136 194.75 128.669 194.824 131.259Z" fill="#8AC54B"/>
</svg>
