<svg width="35" height="35" viewBox="0 0 35 35" fill="none" xmlns="http://www.w3.org/2000/svg">
<circle cx="17.5" cy="17.5" r="17.5" fill="#FFE710"/>
<path d="M24.2414 18.0035C23.7664 17.3893 23.0496 16.9674 22.0911 16.7381C23.3117 16.1155 23.8481 15.0587 23.7008 13.5677C23.6516 13.0271 23.5022 12.5585 23.2522 12.1613C23.0021 11.764 22.6646 11.4447 22.2383 11.2031C21.8124 10.9612 21.3492 10.777 20.8498 10.65C20.3502 10.5231 19.7767 10.4309 19.1295 10.3736V7.27722H17.2375V10.2876C16.9098 10.2876 16.4102 10.2958 15.7386 10.3122V7.27722H13.8462V10.3736C13.5758 10.3818 13.1786 10.386 12.6544 10.386L10.0496 10.3736V12.3888H11.4133C12.0359 12.3888 12.4004 12.6673 12.5069 13.2243V16.7508C12.5889 16.7508 12.6544 16.755 12.7036 16.7632H12.5069V21.7024C12.4414 22.1201 12.2039 22.3291 11.7943 22.3291H10.4306L10.0496 24.5777H12.5071C12.6628 24.5777 12.8879 24.5798 13.1829 24.5835C13.4778 24.5876 13.6988 24.5897 13.8463 24.5897V27.7229H15.7389V24.6265C16.0829 24.6349 16.5826 24.6389 17.2379 24.6389V27.7229H19.13V24.5897C19.8018 24.557 20.3977 24.4959 20.9176 24.4055C21.4378 24.315 21.9356 24.174 22.4106 23.9813C22.8855 23.789 23.2827 23.5492 23.6022 23.2625C23.9217 22.9761 24.1857 22.6114 24.3949 22.1689C24.6035 21.7265 24.7368 21.2146 24.7939 20.6328C24.9009 19.4945 24.7165 18.618 24.2414 18.0035ZM15.7754 12.5235C15.8327 12.5235 15.9945 12.5215 16.2607 12.5174C16.5271 12.5131 16.7482 12.5091 16.9243 12.505C17.1004 12.5009 17.338 12.5112 17.6371 12.5357C17.9361 12.5603 18.1879 12.5931 18.3926 12.634C18.5973 12.6749 18.8228 12.7425 19.0683 12.8367C19.3143 12.9308 19.5108 13.0456 19.658 13.1807C19.8056 13.3159 19.9305 13.488 20.0327 13.6969C20.1352 13.9057 20.1864 14.1453 20.1864 14.4156C20.1864 14.645 20.1496 14.8539 20.076 15.0424C20.0025 15.2308 19.8916 15.3885 19.7444 15.5155C19.597 15.6425 19.4452 15.7531 19.2895 15.8473C19.1341 15.9414 18.9352 16.0172 18.6937 16.0745C18.4521 16.1319 18.2412 16.1769 18.0611 16.2096C17.8809 16.2424 17.6557 16.265 17.3853 16.2772C17.1149 16.2895 16.9101 16.2978 16.7709 16.3019C16.6316 16.3059 16.4412 16.3059 16.1994 16.3019C15.9577 16.2978 15.8165 16.2957 15.7755 16.2957V12.5235H15.7754V12.5235ZM20.9423 20.891C20.8643 21.0795 20.7641 21.2434 20.6413 21.3828C20.5183 21.5218 20.3565 21.6448 20.1559 21.7511C19.9553 21.8578 19.7606 21.9436 19.5723 22.0092C19.3838 22.075 19.1564 22.132 18.8905 22.1813C18.6239 22.2305 18.3906 22.2651 18.1897 22.2857C17.9891 22.3063 17.7496 22.3226 17.471 22.335C17.1926 22.347 16.9754 22.3533 16.8198 22.3533C16.6641 22.3533 16.4675 22.351 16.23 22.347C15.9923 22.3432 15.8409 22.3411 15.7753 22.3411V18.1879C15.8407 18.1879 16.0353 18.1839 16.3589 18.1755C16.6826 18.1673 16.9466 18.1634 17.1515 18.1634C17.3562 18.1634 17.6389 18.1755 17.9995 18.2003C18.3597 18.2247 18.6628 18.2614 18.9088 18.3105C19.1544 18.3598 19.4225 18.4354 19.7135 18.538C20.0042 18.6403 20.2398 18.7652 20.4201 18.9126C20.6004 19.0603 20.7518 19.2484 20.8746 19.4779C20.9978 19.7072 21.0592 19.9693 21.0592 20.2643C21.0591 20.4939 21.0203 20.7025 20.9423 20.891Z" fill="black"/>
</svg>
