<svg width="500" height="500" viewBox="0 0 500 500" fill="none" xmlns="http://www.w3.org/2000/svg">
<path d="M329 505.16C426.204 505.16 505 426.324 505 329.08C505 231.836 426.204 153 329 153C231.796 153 153 231.836 153 329.08C153 426.324 231.796 505.16 329 505.16Z" fill="#F6921A" stroke="white" stroke-width="10"/>
<path d="M297.337 271.969C294.666 265.005 287.986 265.192 282.402 263.856C277.873 262.773 275.722 261.771 277.258 256.09C281.133 241.99 280.772 241.869 294.96 245.398C300.998 246.895 307.05 248.365 313.035 250.063C317.203 251.252 319.287 249.715 320.222 245.679C321.839 238.742 323.829 231.899 325.285 224.935C326.02 221.46 327.45 220.778 330.803 221.473C345.578 224.481 345.605 224.374 341.985 238.755C341.397 241.121 340.836 243.5 340.248 245.879C337.883 255.502 337.963 255.235 347.529 257.761C352.151 259.018 353.273 257.467 354.101 253.431C355.437 246.748 357.468 240.065 359.004 233.382C359.712 230.241 360.674 229.065 364.348 229.894C379.217 233.195 379.23 233.008 375.597 247.59C374.261 252.762 371.348 258.443 372.497 263.054C373.833 268.173 381.194 267.959 385.79 270.352C406.47 281.164 413.644 295.987 407.165 315.421C403.865 325.218 399.256 329.735 387.019 335.175C387.153 335.549 387.193 336.057 387.46 336.258C404.44 348.567 408.541 358.779 403.611 376.515C398 396.71 386.244 406.895 366.673 408.512C359.135 409.307 351.519 408.901 344.109 407.309C337.509 405.746 334.944 407.697 333.982 414.193C333.074 420.327 330.923 426.222 329.681 432.356C328.946 435.898 327.703 437.048 323.856 436.246C309.161 433.239 309.161 433.386 312.834 418.964C313.518 415.47 314.411 412.02 315.506 408.632C317.51 403.46 316.041 401.589 310.657 399.945C303.803 397.873 301.185 399.517 300.156 406.374C299.235 412.509 297.164 418.403 295.828 424.538C295.106 427.892 293.65 428.614 290.257 427.879C275.562 424.725 275.562 424.832 279.102 410.504C283.524 392.674 283.524 392.687 265.849 388.384C260.506 387.047 255.082 385.563 249.658 384.374C246.679 383.732 246.425 382.623 247.28 379.749C247.788 378.039 248.509 376.194 249.11 374.604C254.734 359.741 254.721 362.574 267.813 365.061C272.382 365.929 276.136 364.927 277.312 360.182C284.205 332.582 290.885 304.915 297.631 277.315C297.947 275.534 297.846 273.704 297.337 271.969Z" fill="#FEFEFE"/>
<path d="M365.471 368.068C362.799 376.555 357.375 380.578 346.995 381.313C335.038 382.168 323.616 379.134 312.167 376.247C309.147 375.472 308.894 373.695 309.495 371.262C312.247 360.035 315.079 348.821 317.791 337.581C318.379 335.121 319.594 334.279 322.066 334.908C333.315 337.581 344.777 339.906 354.756 346.014C359.713 349.008 364.469 352.43 365.564 358.805C366.214 361.862 366.183 365.025 365.471 368.068Z" fill="#F6921A"/>
<path d="M340.288 318.628C323.041 317.051 323.041 317.051 326.928 301.133C328.518 294.677 330.161 288.248 331.804 281.819C332.232 280.162 332.312 277.81 334.877 278.451C347.395 281.218 361.703 282.14 369.318 293.768C370.059 294.843 370.602 296.043 370.921 297.31C372.04 301.25 371.984 305.431 370.76 309.339C366.379 319.149 355.825 322.544 341.37 318.842L340.288 318.628Z" fill="#F6931A"/>
<circle cx="171" cy="171" r="176" fill="#F3BA2F" stroke="white" stroke-width="10"/>
<path d="M122.448 151.052L171 102.5L219.575 151.073L247.825 122.823L171 46L94.2 122.8L122.449 151.05L122.448 151.052ZM46 171L74.251 142.745L102.5 170.994L74.249 199.245L46 171ZM122.448 190.951L171 239.5L219.574 190.928L247.839 219.163L247.825 219.178L171 296L94.2 219.2L94.16 219.16L122.451 190.948L122.448 190.951ZM239.5 171.012L267.751 142.761L296 171.01L267.75 199.261L239.5 171.012Z" fill="white"/>
<path d="M199.651 170.985H199.663L170.999 142.319L149.812 163.5L147.378 165.935L142.358 170.956L142.318 170.995L142.358 171.036L170.999 199.681L199.665 171.015L199.679 170.999L199.653 170.985" fill="white"/>
</svg>
