<svg width="106" height="106" viewBox="0 0 106 106" fill="none" xmlns="http://www.w3.org/2000/svg">
<circle cx="53" cy="53" r="53" fill="#FFE710"/>
<path d="M73.4165 54.5248C71.9779 52.6646 69.8071 51.3869 66.9042 50.6924C70.6009 48.8068 72.2254 45.6065 71.7794 41.0909C71.6303 39.4534 71.1778 38.0343 70.4208 36.8314C69.6632 35.6282 68.641 34.661 67.3501 33.9292C66.0603 33.1966 64.6574 32.6389 63.1448 32.2544C61.6318 31.8699 59.8948 31.5907 57.9349 31.4172V22.0396H52.2047V31.1567C51.2124 31.1567 49.6992 31.1814 47.6651 31.2311V22.0396H41.9341V31.4172C41.1152 31.4421 39.9121 31.4547 38.3245 31.4547L30.4355 31.4172V37.5202H34.5659C36.4514 37.5202 37.5553 38.3639 37.8778 40.0506V50.7309C38.1262 50.7309 38.3245 50.7436 38.4734 50.7684H37.8778V65.7273C37.6795 66.9923 36.9602 67.6253 35.7196 67.6253H31.5896L30.4358 74.4354H37.8784C38.3499 74.4354 39.0317 74.4417 39.9252 74.4529C40.8181 74.4654 41.4877 74.4716 41.9343 74.4716V83.9607H47.6663V74.5832C48.7079 74.6086 50.2212 74.6208 52.2059 74.6208V83.9607H57.9362V74.4716C59.9709 74.3726 61.7756 74.1875 63.3502 73.9137C64.9257 73.6398 66.4332 73.2126 67.8717 72.6292C69.3101 72.0466 70.5132 71.3204 71.4805 70.4521C72.4484 69.5846 73.2478 68.4801 73.8815 67.1402C74.5131 65.8003 74.9168 64.2498 75.0899 62.488C75.4138 59.0405 74.8553 56.3858 73.4165 54.5248ZM47.7765 37.9284C47.9503 37.9284 48.4402 37.9222 49.2465 37.9097C50.0532 37.8969 50.7227 37.8846 51.2561 37.8721C51.7895 37.8599 52.509 37.8909 53.4149 37.9653C54.3203 38.0397 55.0831 38.1392 55.7031 38.263C56.3231 38.3868 57.006 38.5916 57.7496 38.8769C58.4945 39.162 59.0895 39.5094 59.5355 39.9187C59.9824 40.328 60.3607 40.8492 60.6702 41.4819C60.9807 42.1144 61.1358 42.84 61.1358 43.6585C61.1358 44.3532 61.0243 44.986 60.8013 45.5569C60.5787 46.1274 60.243 46.6051 59.7969 46.9896C59.3508 47.3742 58.8909 47.7095 58.4195 47.9945C57.9486 48.2796 57.3464 48.5092 56.6148 48.6827C55.8834 48.8565 55.2446 48.9929 54.6991 49.092C54.1532 49.1913 53.4712 49.2597 52.6524 49.2967C51.8335 49.3338 51.2131 49.3591 50.7915 49.3713C50.3696 49.3836 49.793 49.3836 49.0609 49.3713C48.3286 49.3591 47.9013 49.3525 47.7769 49.3525V37.9283H47.7765V37.9284ZM63.4251 63.2699C63.1888 63.8408 62.8853 64.3372 62.5135 64.7593C62.141 65.1803 61.6507 65.5528 61.0432 65.8749C60.4359 66.1978 59.8461 66.4579 59.276 66.6564C58.7051 66.8557 58.0164 67.0284 57.2109 67.1777C56.4036 67.3267 55.697 67.4315 55.0886 67.4939C54.481 67.5561 53.7557 67.6055 52.9119 67.643C52.0687 67.6795 51.4109 67.6984 50.9397 67.6984C50.4683 67.6984 49.8728 67.6917 49.1533 67.6795C48.4334 67.6679 47.9749 67.6617 47.7763 67.6617V55.0833C47.9745 55.0833 48.5638 55.0712 49.5439 55.0459C50.5242 55.0209 51.3238 55.0093 51.9441 55.0093C52.5643 55.0093 53.4205 55.0459 54.5125 55.1208C55.6034 55.1947 56.5214 55.3059 57.2663 55.4548C58.0102 55.6039 58.8221 55.833 59.7035 56.1435C60.5839 56.4534 61.2975 56.8317 61.8435 57.2782C62.3894 57.7255 62.848 58.2952 63.22 58.9901C63.5929 59.6845 63.7789 60.4786 63.7789 61.3719C63.7788 62.0673 63.6611 62.6989 63.4251 63.2699Z" fill="black"/>
</svg>
