<svg width="500" height="500" viewBox="0 0 500 500" fill="none" xmlns="http://www.w3.org/2000/svg">
<path d="M329 505C426.524 505 505 426.524 505 329C505 231.476 426.524 153 329 153C231.476 153 153 231.476 153 329C153 426.524 231.476 505 329 505Z" fill="#2775CA" stroke="white" stroke-width="10"/>
<path d="M376.025 356.075C376.025 331.138 361.063 322.588 331.138 319.026C309.763 316.175 305.488 310.476 305.488 300.5C305.488 290.524 312.613 284.113 326.863 284.113C339.688 284.113 346.813 288.388 350.375 299.075C351.088 301.213 353.226 302.637 355.363 302.637H366.762C369.613 302.637 371.75 300.5 371.75 297.651V296.938C368.9 281.262 356.075 269.15 339.688 267.726V250.626C339.688 247.775 337.55 245.638 333.988 244.925H323.301C320.45 244.925 318.313 247.062 317.6 250.626V267.013C296.225 269.863 282.688 284.113 282.688 301.926C282.688 325.438 296.938 334.7 326.863 338.263C346.813 341.825 353.226 346.1 353.226 357.501C353.226 368.902 343.25 376.738 329.713 376.738C311.187 376.738 304.775 368.9 302.637 358.212C301.926 355.363 299.788 353.937 297.651 353.937H285.537C282.688 353.937 280.551 356.075 280.551 358.925V359.638C283.4 377.45 294.8 390.275 318.313 393.838V410.938C318.313 413.787 320.45 415.925 324.012 416.638H334.7C337.55 416.638 339.688 414.5 340.401 410.938V393.838C361.776 390.275 376.025 375.312 376.025 356.075Z" fill="white"/>
<path d="M292.663 430.887C237.088 410.938 208.587 348.951 229.251 294.087C239.938 264.162 263.451 241.363 292.663 230.675C295.513 229.251 296.938 227.113 296.938 223.55V213.575C296.938 210.725 295.513 208.587 292.663 207.876C291.95 207.876 290.525 207.876 289.812 208.587C222.125 229.962 185.075 301.926 206.45 369.613C219.275 409.512 249.913 440.15 289.812 452.975C292.663 454.4 295.513 452.975 296.225 450.125C296.938 449.413 296.938 448.7 296.938 447.276V437.3C296.938 435.162 294.8 432.313 292.663 430.887ZM368.188 208.587C365.338 207.163 362.487 208.587 361.776 211.438C361.063 212.151 361.063 212.862 361.063 214.288V224.263C361.063 227.113 363.2 229.962 365.338 231.388C420.913 251.337 449.413 313.325 428.75 368.188C418.062 398.113 394.55 420.913 365.338 431.6C362.487 433.025 361.063 435.162 361.063 438.726V448.7C361.063 451.551 362.487 453.688 365.338 454.4C366.051 454.4 367.475 454.4 368.188 453.688C435.875 432.313 472.926 360.35 451.551 292.663C438.726 252.05 407.375 221.412 368.188 208.587Z" fill="white"/>
<path d="M171 347.16C268.204 347.16 347 268.324 347 171.08C347 73.836 268.204 -5 171 -5C73.7957 -5 -5 73.836 -5 171.08C-5 268.324 73.7957 347.16 171 347.16Z" fill="#F6921A" stroke="white" stroke-width="10"/>
<path d="M139.337 113.969C136.666 107.005 129.986 107.192 124.402 105.856C119.873 104.773 117.722 103.771 119.258 98.0904C123.133 83.9897 122.772 83.8694 136.96 87.3979C142.998 88.8949 149.05 90.3651 155.035 92.0625C159.203 93.2521 161.287 91.715 162.222 87.6786C163.839 80.7418 165.829 73.8986 167.285 66.9351C168.02 63.46 169.45 62.7784 172.803 63.4734C187.578 66.4807 187.605 66.3738 183.985 80.7552C183.397 83.1209 182.836 85.5 182.248 87.8791C179.883 97.5023 179.963 97.235 189.529 99.7611C194.151 101.018 195.273 99.4671 196.101 95.4307C197.437 88.7478 199.468 82.065 201.004 75.3822C201.712 72.2413 202.674 71.0651 206.348 71.8938C221.217 75.1951 221.23 75.008 217.597 89.5899C216.261 94.7624 213.348 100.443 214.497 105.054C215.833 110.173 223.194 109.959 227.79 112.352C248.47 123.164 255.644 137.987 249.165 157.421C245.865 167.218 241.256 171.735 229.019 177.175C229.153 177.549 229.193 178.057 229.46 178.258C246.44 190.567 250.541 200.779 245.611 218.515C240 238.71 228.244 248.895 208.673 250.512C201.135 251.307 193.519 250.901 186.109 249.309C179.509 247.746 176.944 249.697 175.982 256.193C175.074 262.327 172.923 268.222 171.681 274.356C170.946 277.898 169.703 279.048 165.856 278.246C151.161 275.239 151.161 275.386 154.834 260.964C155.518 257.47 156.411 254.02 157.506 250.632C159.51 245.46 158.041 243.589 152.657 241.945C145.803 239.873 143.185 241.517 142.156 248.374C141.235 254.509 139.164 260.403 137.828 266.538C137.106 269.892 135.65 270.614 132.257 269.879C117.562 266.725 117.562 266.832 121.102 252.504C125.524 234.674 125.524 234.687 107.849 230.384C102.506 229.047 97.0818 227.563 91.6579 226.374C88.6788 225.732 88.4249 224.623 89.2799 221.749C89.7876 220.039 90.509 218.194 91.1102 216.604C96.7345 201.741 96.7211 204.574 109.813 207.061C114.382 207.929 118.136 206.927 119.312 202.182C126.205 174.582 132.885 146.915 139.631 119.315C139.947 117.534 139.846 115.704 139.337 113.969Z" fill="#FEFEFE"/>
<path d="M207.471 210.068C204.799 218.555 199.375 222.578 188.995 223.313C177.038 224.169 165.616 221.135 154.167 218.248C151.147 217.473 150.894 215.695 151.495 213.262C154.247 202.035 157.079 190.822 159.791 179.581C160.379 177.122 161.594 176.28 164.066 176.908C175.315 179.581 186.777 181.907 196.756 188.015C201.713 191.009 206.469 194.43 207.564 200.806C208.214 203.862 208.183 207.025 207.471 210.068Z" fill="#F6921A"/>
<path d="M182.288 160.628C165.041 159.051 165.041 159.051 168.928 143.132C170.518 136.677 172.161 130.248 173.804 123.819C174.232 122.162 174.312 119.809 176.877 120.451C189.395 123.218 203.703 124.14 211.318 135.768C212.059 136.843 212.602 138.043 212.921 139.31C214.04 143.25 213.984 147.43 212.76 151.339C208.379 161.149 197.825 164.544 183.37 160.842L182.288 160.628Z" fill="#F6931A"/>
</svg>
