<svg width="500" height="500" viewBox="0 0 500 500" fill="none" xmlns="http://www.w3.org/2000/svg">
<path d="M329 500.16C423.441 500.16 500 423.565 500 329.08C500 234.595 423.441 158 329 158C234.559 158 158 234.595 158 329.08C158 423.565 234.559 500.16 329 500.16Z" fill="#F6921A"/>
<path d="M297.337 271.969C294.666 265.005 287.986 265.192 282.402 263.856C277.873 262.773 275.722 261.771 277.258 256.09C281.133 241.99 280.772 241.869 294.96 245.398C300.998 246.895 307.05 248.365 313.035 250.063C317.203 251.252 319.287 249.715 320.222 245.679C321.839 238.742 323.829 231.899 325.285 224.935C326.02 221.46 327.45 220.778 330.803 221.473C345.578 224.481 345.605 224.374 341.985 238.755C341.397 241.121 340.836 243.5 340.248 245.879C337.883 255.502 337.963 255.235 347.529 257.761C352.151 259.018 353.273 257.467 354.101 253.431C355.437 246.748 357.468 240.065 359.004 233.382C359.712 230.241 360.674 229.065 364.348 229.894C379.217 233.195 379.23 233.008 375.597 247.59C374.261 252.762 371.348 258.443 372.497 263.054C373.833 268.173 381.194 267.959 385.79 270.352C406.47 281.164 413.644 295.987 407.165 315.421C403.865 325.218 399.256 329.735 387.019 335.175C387.153 335.549 387.193 336.057 387.46 336.258C404.44 348.567 408.541 358.779 403.611 376.515C398 396.71 386.244 406.895 366.673 408.512C359.135 409.307 351.519 408.901 344.109 407.309C337.509 405.746 334.944 407.697 333.982 414.193C333.074 420.327 330.923 426.222 329.681 432.356C328.946 435.898 327.703 437.048 323.856 436.246C309.161 433.239 309.161 433.386 312.834 418.964C313.518 415.47 314.411 412.02 315.506 408.632C317.51 403.46 316.041 401.589 310.657 399.945C303.803 397.873 301.185 399.517 300.156 406.374C299.235 412.509 297.164 418.403 295.828 424.538C295.106 427.892 293.65 428.614 290.257 427.879C275.562 424.725 275.562 424.832 279.102 410.504C283.524 392.674 283.524 392.687 265.849 388.384C260.506 387.047 255.082 385.563 249.658 384.374C246.679 383.732 246.425 382.623 247.28 379.749C247.788 378.039 248.509 376.194 249.11 374.604C254.734 359.741 254.721 362.574 267.813 365.061C272.382 365.929 276.136 364.927 277.312 360.182C284.205 332.582 290.885 304.915 297.631 277.315C297.947 275.534 297.846 273.704 297.337 271.969Z" fill="#FEFEFE"/>
<path d="M365.471 368.068C362.799 376.555 357.375 380.578 346.995 381.313C335.038 382.169 323.616 379.135 312.167 376.248C309.147 375.473 308.894 373.695 309.495 371.262C312.247 360.035 315.079 348.822 317.791 337.581C318.379 335.122 319.594 334.28 322.066 334.908C333.315 337.581 344.777 339.907 354.756 346.015C359.713 349.009 364.469 352.43 365.564 358.806C366.214 361.862 366.183 365.025 365.471 368.068Z" fill="#F6921A"/>
<path d="M340.288 318.628C323.041 317.051 323.041 317.051 326.928 301.132C328.518 294.677 330.161 288.248 331.804 281.819C332.232 280.162 332.312 277.809 334.877 278.451C347.395 281.218 361.703 282.14 369.318 293.768C370.059 294.843 370.602 296.043 370.921 297.31C372.04 301.25 371.984 305.43 370.76 309.339C366.379 319.149 355.825 322.544 341.37 318.842L340.288 318.628Z" fill="#F6931A"/>
<path d="M327.116 161.058C327.116 252.77 252.77 327.116 161.058 327.116C69.3468 327.116 -5 252.77 -5 161.058C-5 69.3468 69.3468 -5 161.058 -5C252.77 -5 327.116 69.3468 327.116 161.058Z" fill="black" stroke="white" stroke-width="10"/>
<path d="M246.529 235.351C246.646 237.33 245.714 238.262 244.433 239.077C234.302 245.365 224.288 251.769 214.157 258.057C197.389 268.537 180.621 279.018 163.969 289.498C161.873 290.779 160.243 290.779 158.264 289.498C131.598 272.73 104.815 255.961 78.0327 239.193C75.7038 237.796 75.3545 236.864 75.9367 234.303C84.7865 194.129 93.5199 153.955 102.253 113.782C102.486 112.85 102.836 111.918 103.418 111.22C121.583 86.4169 139.749 61.4976 158.031 36.6948C159.894 34.133 162.456 34.133 164.319 36.6948C182.484 61.4976 200.65 86.4169 218.932 111.22C219.98 112.617 220.096 114.364 220.445 115.994C229.062 155.469 237.796 194.944 246.413 234.419C246.413 234.768 246.413 235.234 246.529 235.351Z" fill="#FEFEFE"/>
<path d="M161.058 98.1777C168.162 110.754 175.265 123.213 182.252 135.557C187.026 143.941 191.8 152.325 196.574 160.709C197.156 161.64 197.157 162.456 196.807 163.504C189.588 185.978 182.484 208.335 175.381 230.809C175.032 231.973 174.566 232.323 173.285 232.323C165.018 232.206 156.866 232.323 148.599 232.323C147.551 232.323 146.969 232.09 146.619 230.925C139.516 208.335 132.296 185.861 125.077 163.271C124.844 162.456 124.727 161.757 125.193 160.942C136.954 140.331 148.599 119.72 160.36 98.9928C160.709 98.8764 160.826 98.6435 161.058 98.1777Z" fill="black"/>
<path d="M164.901 49.2705C166.764 51.8323 168.627 54.3941 170.49 56.9559C184.114 75.5872 197.855 94.3349 211.479 112.966C212.177 113.898 212.41 114.713 211.945 115.877C208.102 127.871 204.259 139.865 200.416 151.859C200.3 152.092 200.184 152.325 200.067 152.674C199.485 152.325 199.368 151.742 199.019 151.393C187.724 131.481 176.429 111.452 165.133 91.5402C164.784 90.9579 164.318 90.3757 164.318 89.5606C164.318 76.1694 164.318 62.7782 164.318 49.387C164.668 49.387 164.784 49.387 164.901 49.2705Z" fill="black"/>
<path d="M157.565 48.9209C157.565 62.7779 157.565 76.1691 157.565 89.4439C157.565 90.0261 157.448 90.3754 157.215 90.8412C145.571 111.452 133.81 132.063 122.165 152.557C122.165 152.557 122.049 152.674 121.932 152.79C120.768 149.064 119.487 145.338 118.323 141.611C115.528 132.878 112.85 124.145 109.938 115.528C109.706 114.596 109.706 114.014 110.288 113.199C125.775 92.1221 141.262 70.9291 156.633 49.8525C156.866 49.736 157.099 49.5031 157.565 48.9209Z" fill="black"/>
<path d="M237.097 232.323C218.699 232.323 200.533 232.323 182.135 232.323C188.656 211.712 195.293 191.102 201.93 170.258C213.808 191.102 225.336 211.596 237.097 232.323Z" fill="black"/>
<path d="M85.0195 232.323C96.7805 211.596 108.425 191.102 120.186 170.258C126.823 191.102 133.344 211.712 139.982 232.323C121.583 232.323 103.418 232.323 85.0195 232.323Z" fill="black"/>
<path d="M230.809 239.426C209.499 252.817 188.539 265.859 167.229 279.251C168.278 275.99 169.209 273.195 170.024 270.284C173.168 260.386 176.312 250.489 179.456 240.591C179.689 239.776 179.922 239.193 181.086 239.193C197.389 239.193 213.575 239.193 229.877 239.193C230.11 239.31 230.226 239.31 230.809 239.426Z" fill="black"/>
<path d="M91.54 239.542C92.2387 239.076 92.7045 239.309 93.1703 239.309C109.007 239.309 124.727 239.309 140.564 239.309C141.728 239.309 142.31 239.659 142.66 240.823C146.502 253.166 150.461 265.509 154.421 277.853C154.537 278.202 154.537 278.435 154.77 279.25C133.577 265.859 112.617 252.7 91.54 239.542Z" fill="black"/>
<path d="M215.788 127.173C222.076 156.051 228.364 184.464 234.536 212.877C234.419 212.877 234.303 212.993 234.186 212.993C232.44 209.965 230.693 206.821 228.946 203.794C221.144 190.053 213.459 176.313 205.657 162.689C205.075 161.757 204.958 160.942 205.308 159.894C208.685 149.647 211.945 139.283 215.206 128.92C215.206 128.57 215.439 128.104 215.788 127.173Z" fill="black"/>
<path d="M87.6973 212.76C93.8689 184.348 100.157 156.051 106.329 127.639C106.445 127.639 106.561 127.639 106.561 127.639C108.308 133.228 110.055 138.817 111.918 144.29C113.548 149.53 115.295 154.887 117.041 160.127C117.274 160.942 117.274 161.641 116.809 162.339C107.377 178.875 97.9445 195.526 88.5124 212.062C88.3959 212.294 88.163 212.527 88.0466 212.76C87.9302 212.76 87.8137 212.76 87.6973 212.76Z" fill="black"/>
<path d="M160.942 275.408C159.661 271.565 158.496 267.606 157.215 263.763C154.77 256.078 152.325 248.392 149.879 240.707C149.53 239.659 149.53 239.31 150.811 239.31C157.565 239.31 164.435 239.31 171.189 239.31C172.586 239.31 172.586 239.659 172.237 240.823C168.511 252.351 164.901 263.88 161.174 275.408C161.174 275.408 161.058 275.408 160.942 275.408Z" fill="black"/>
</svg>
