<svg width="500" height="500" viewBox="0 0 500 500" fill="none" xmlns="http://www.w3.org/2000/svg">
<path d="M329 500.16C423.441 500.16 500 423.565 500 329.08C500 234.595 423.441 158 329 158C234.559 158 158 234.595 158 329.08C158 423.565 234.559 500.16 329 500.16Z" fill="#F6921A"/>
<path d="M297.337 271.969C294.666 265.005 287.986 265.192 282.402 263.856C277.873 262.773 275.722 261.771 277.258 256.09C281.133 241.99 280.772 241.869 294.96 245.398C300.998 246.895 307.05 248.365 313.035 250.063C317.203 251.252 319.287 249.715 320.222 245.679C321.839 238.742 323.829 231.899 325.285 224.935C326.02 221.46 327.45 220.778 330.803 221.473C345.578 224.481 345.605 224.374 341.985 238.755C341.397 241.121 340.836 243.5 340.248 245.879C337.883 255.502 337.963 255.235 347.529 257.761C352.151 259.018 353.273 257.467 354.101 253.431C355.437 246.748 357.468 240.065 359.004 233.382C359.712 230.241 360.674 229.065 364.348 229.894C379.217 233.195 379.23 233.008 375.597 247.59C374.261 252.762 371.348 258.443 372.497 263.054C373.833 268.173 381.194 267.959 385.79 270.352C406.47 281.164 413.644 295.987 407.165 315.421C403.865 325.218 399.256 329.735 387.019 335.175C387.153 335.549 387.193 336.057 387.46 336.258C404.44 348.567 408.541 358.779 403.611 376.515C398 396.71 386.244 406.895 366.673 408.512C359.135 409.307 351.519 408.901 344.109 407.309C337.509 405.746 334.944 407.697 333.982 414.193C333.074 420.327 330.923 426.222 329.681 432.356C328.946 435.898 327.703 437.048 323.856 436.246C309.161 433.239 309.161 433.386 312.834 418.964C313.518 415.47 314.411 412.02 315.506 408.632C317.51 403.46 316.041 401.589 310.657 399.945C303.803 397.873 301.185 399.517 300.156 406.374C299.235 412.509 297.164 418.403 295.828 424.538C295.106 427.892 293.65 428.614 290.257 427.879C275.562 424.725 275.562 424.832 279.102 410.504C283.524 392.674 283.524 392.687 265.849 388.384C260.506 387.047 255.082 385.563 249.658 384.374C246.679 383.732 246.425 382.623 247.28 379.749C247.788 378.039 248.509 376.194 249.11 374.604C254.734 359.741 254.721 362.574 267.813 365.061C272.382 365.929 276.136 364.927 277.312 360.182C284.205 332.582 290.885 304.915 297.631 277.315C297.947 275.534 297.846 273.704 297.337 271.969Z" fill="#FEFEFE"/>
<path d="M365.471 368.068C362.799 376.555 357.375 380.578 346.995 381.313C335.038 382.169 323.616 379.135 312.167 376.248C309.147 375.473 308.894 373.695 309.495 371.262C312.247 360.035 315.079 348.822 317.791 337.581C318.379 335.122 319.594 334.28 322.066 334.908C333.315 337.581 344.777 339.907 354.756 346.015C359.713 349.009 364.469 352.43 365.564 358.806C366.214 361.862 366.183 365.025 365.471 368.068Z" fill="#F6921A"/>
<path d="M340.288 318.628C323.041 317.051 323.041 317.051 326.928 301.132C328.518 294.677 330.161 288.248 331.804 281.819C332.232 280.162 332.312 277.809 334.877 278.451C347.395 281.218 361.703 282.14 369.318 293.768C370.059 294.843 370.602 296.043 370.921 297.31C372.04 301.25 371.984 305.43 370.76 309.339C366.379 319.149 355.825 322.544 341.37 318.842L340.288 318.628Z" fill="#F6931A"/>
<path d="M171 347C268.202 347 347 268.202 347 171C347 73.7979 268.202 -5 171 -5C73.7979 -5 -5 73.7979 -5 171C-5 268.202 73.7979 347 171 347Z" fill="#617DE8" stroke="white" stroke-width="10"/>
<path d="M95.7949 173.206C99.5626 167.001 103.309 160.785 107.098 154.6C129.844 117.515 152.598 80.4401 175.359 43.3758C175.707 42.8165 175.907 42.1199 176.551 41.7822C177.135 43.0668 177.424 44.4661 177.395 45.877C177.395 75.4904 177.395 105.107 177.395 134.728C177.424 135.458 177.357 136.189 177.195 136.902C176.987 137.339 176.693 137.73 176.33 138.051C175.967 138.372 175.544 138.617 175.084 138.77C164.372 143.582 153.639 148.342 142.927 153.133L118.918 163.877C111.995 166.969 105.082 170.103 98.1273 173.132C97.3991 173.46 96.6075 173.861 95.7949 173.206Z" fill="#FEFEFE"/>
<path d="M176.499 137.303C176.499 136.849 176.499 136.406 176.499 135.952V41.7822C178.056 43.7671 179.433 45.8861 180.615 48.1144C206.028 89.5056 231.427 130.904 256.812 172.309C256.991 172.594 257.139 172.9 257.297 173.196C256.941 173.423 256.527 173.544 256.105 173.544C255.682 173.544 255.268 173.423 254.912 173.196C247.24 169.702 239.525 166.304 231.832 162.864L204.93 150.917C196.931 147.339 188.9 143.804 180.932 140.152C179.465 139.477 177.765 139.097 176.71 137.799C176.595 137.657 176.522 137.485 176.499 137.303Z" fill="#C0CBF6"/>
<path d="M95.7949 173.206C101.504 170.694 107.224 168.204 112.913 165.671C134.119 156.229 155.314 146.773 176.498 137.303L176.614 137.429C176.929 137.83 177.159 138.289 177.292 138.781C177.424 139.272 177.456 139.785 177.385 140.289C177.385 144.279 177.385 148.278 177.385 152.278C177.385 173.674 177.385 195.07 177.385 216.465C177.385 217.858 177.596 219.315 176.53 220.486C169.593 216.511 162.666 212.529 155.75 208.54C136.374 197.282 117.008 186.025 97.6524 174.768C96.9664 174.388 95.8794 174.346 95.7949 173.206Z" fill="#C0CBF6"/>
<path d="M176.529 220.486C176.529 213.513 176.529 206.534 176.529 199.547C176.529 179.629 176.529 159.711 176.529 139.793C176.529 139.001 176.529 138.21 176.529 137.429C181.321 139.539 186.123 141.65 190.903 143.761C210.491 152.485 230.078 161.227 249.666 169.987C252.122 171.236 254.661 172.315 257.264 173.216C257.264 174.092 256.441 174.208 255.913 174.514C238.852 184.434 221.773 194.348 204.676 204.254C196.008 209.278 187.35 214.315 178.703 219.367C178.06 219.778 177.3 220.106 176.529 220.486Z" fill="#8097ED"/>
<path d="M176.54 300.556C176.023 300.366 175.833 299.86 175.538 299.501L96.903 190.64L96.2275 189.648C96.8291 189.142 97.2196 189.648 97.5784 189.87C123.92 205.152 150.248 220.437 176.562 235.725C176.822 235.896 177.032 236.135 177.167 236.415C177.303 236.696 177.36 237.008 177.332 237.319C177.395 238.047 177.395 238.775 177.395 239.504V295.986C177.534 297.559 177.238 299.14 176.54 300.556Z" fill="#FEFEFE"/>
<path d="M176.541 300.556C176.541 278.949 176.541 257.339 176.541 235.725L256.886 189.1C257.033 189.87 256.548 190.155 256.273 190.556C230.178 226.692 204.068 262.817 177.945 298.931C177.544 299.511 177.301 300.229 176.541 300.556Z" fill="#C0CBF6"/>
</svg>
