<svg width="500" height="500" viewBox="0 0 500 500" fill="none" xmlns="http://www.w3.org/2000/svg">
<path d="M329 500.16C423.441 500.16 500 423.565 500 329.08C500 234.595 423.441 158 329 158C234.559 158 158 234.595 158 329.08C158 423.565 234.559 500.16 329 500.16Z" fill="#F6921A"/>
<path d="M297.337 271.969C294.666 265.005 287.986 265.192 282.402 263.856C277.873 262.773 275.722 261.771 277.258 256.09C281.133 241.99 280.772 241.869 294.96 245.398C300.998 246.895 307.05 248.365 313.035 250.063C317.203 251.252 319.287 249.715 320.222 245.679C321.839 238.742 323.829 231.899 325.285 224.935C326.02 221.46 327.45 220.778 330.803 221.473C345.578 224.481 345.605 224.374 341.985 238.755C341.397 241.121 340.836 243.5 340.248 245.879C337.883 255.502 337.963 255.235 347.529 257.761C352.151 259.018 353.273 257.467 354.101 253.431C355.437 246.748 357.468 240.065 359.004 233.382C359.712 230.241 360.674 229.065 364.348 229.894C379.217 233.195 379.23 233.008 375.597 247.59C374.261 252.762 371.348 258.443 372.497 263.054C373.833 268.173 381.194 267.959 385.79 270.352C406.47 281.164 413.644 295.987 407.165 315.421C403.865 325.218 399.256 329.735 387.019 335.175C387.153 335.549 387.193 336.057 387.46 336.258C404.44 348.567 408.541 358.779 403.611 376.515C398 396.71 386.244 406.895 366.673 408.512C359.135 409.307 351.519 408.901 344.109 407.309C337.509 405.746 334.944 407.697 333.982 414.193C333.074 420.327 330.923 426.222 329.681 432.356C328.946 435.898 327.703 437.048 323.856 436.246C309.161 433.239 309.161 433.386 312.834 418.964C313.518 415.47 314.411 412.02 315.506 408.632C317.51 403.46 316.041 401.589 310.657 399.945C303.803 397.873 301.185 399.517 300.156 406.374C299.235 412.509 297.164 418.403 295.828 424.538C295.106 427.892 293.65 428.614 290.257 427.879C275.562 424.725 275.562 424.832 279.102 410.504C283.524 392.674 283.524 392.687 265.849 388.384C260.506 387.047 255.082 385.563 249.658 384.374C246.679 383.732 246.425 382.623 247.28 379.749C247.788 378.039 248.509 376.194 249.11 374.604C254.734 359.741 254.721 362.574 267.813 365.061C272.382 365.929 276.136 364.927 277.312 360.182C284.205 332.582 290.885 304.915 297.631 277.315C297.947 275.534 297.846 273.704 297.337 271.969Z" fill="#FEFEFE"/>
<path d="M365.471 368.068C362.799 376.555 357.375 380.578 346.995 381.313C335.038 382.169 323.616 379.135 312.167 376.248C309.147 375.472 308.894 373.695 309.495 371.262C312.247 360.035 315.079 348.821 317.791 337.581C318.379 335.122 319.594 334.279 322.066 334.908C333.315 337.581 344.777 339.906 354.756 346.015C359.713 349.008 364.469 352.43 365.564 358.805C366.214 361.862 366.183 365.025 365.471 368.068Z" fill="#F6921A"/>
<path d="M340.288 318.628C323.041 317.051 323.041 317.051 326.928 301.133C328.518 294.677 330.161 288.248 331.804 281.819C332.232 280.162 332.312 277.81 334.877 278.451C347.395 281.218 361.703 282.14 369.318 293.768C370.059 294.844 370.602 296.043 370.921 297.31C372.04 301.25 371.984 305.431 370.76 309.339C366.379 319.15 355.825 322.544 341.37 318.842L340.288 318.628Z" fill="#F6931A"/>
<circle cx="171" cy="171" r="176" fill="#C4C4C4" stroke="white" stroke-width="10"/>
<path d="M171 323.492C255.219 323.492 323.492 255.219 323.492 171C323.492 86.7809 255.219 18.5078 171 18.5078C86.7809 18.5078 18.5078 86.7809 18.5078 171C18.5078 255.219 86.7809 323.492 171 323.492Z" fill="white"/>
<path d="M171 0C137.179 0 104.118 10.029 75.9976 28.8187C47.8768 47.6084 25.9593 74.315 13.0167 105.561C0.074091 136.807 -3.31228 171.19 3.28579 204.36C9.88387 237.531 26.17 268 50.0848 291.915C73.9996 315.83 104.469 332.116 137.64 338.714C170.81 345.312 205.193 341.926 236.439 328.983C267.685 316.041 294.392 294.123 313.181 266.003C331.971 237.882 342 204.821 342 171C342.065 148.609 337.72 126.425 329.212 105.713C320.703 85.0019 308.199 66.1692 292.412 50.2903C276.626 34.4115 257.866 21.7976 237.205 13.1687C216.543 4.53989 194.385 0.0651526 171.994 0H171ZM173.898 176.797L156.095 236.833H251.325C251.955 236.811 252.584 236.913 253.176 237.134C253.767 237.355 254.309 237.691 254.77 238.122C255.231 238.552 255.603 239.07 255.865 239.644C256.126 240.219 256.272 240.839 256.293 241.47V243.044L248.012 271.613C247.647 272.964 246.833 274.15 245.705 274.978C244.576 275.806 243.2 276.225 241.802 276.167H96.0582L120.487 192.944L93.1599 201.225L99.3705 182.179L126.697 173.898L161.063 57.138C161.441 55.7945 162.258 54.6163 163.384 53.7909C164.509 52.9656 165.879 52.5405 167.274 52.5835H204.124C204.754 52.5614 205.383 52.6638 205.975 52.885C206.566 53.1061 207.108 53.4416 207.569 53.8723C208.03 54.303 208.403 54.8204 208.664 55.395C208.925 55.9695 209.071 56.59 209.092 57.2208V58.7942L180.109 157.337L207.436 149.056L201.639 168.93L173.898 176.797Z" fill="#345D9D"/>
</svg>
