<svg width="500" height="500" viewBox="0 0 500 500" fill="none" xmlns="http://www.w3.org/2000/svg">
<path d="M329 500.16C423.441 500.16 500 423.565 500 329.08C500 234.595 423.441 158 329 158C234.559 158 158 234.595 158 329.08C158 423.565 234.559 500.16 329 500.16Z" fill="#F6921A"/>
<path d="M297.337 271.969C294.666 265.005 287.986 265.192 282.402 263.856C277.873 262.773 275.722 261.771 277.258 256.09C281.133 241.99 280.772 241.869 294.96 245.398C300.998 246.895 307.05 248.365 313.035 250.063C317.203 251.252 319.287 249.715 320.222 245.679C321.839 238.742 323.829 231.899 325.285 224.935C326.02 221.46 327.45 220.778 330.803 221.473C345.578 224.481 345.605 224.374 341.985 238.755C341.397 241.121 340.836 243.5 340.248 245.879C337.883 255.502 337.963 255.235 347.529 257.761C352.151 259.018 353.273 257.467 354.101 253.431C355.437 246.748 357.468 240.065 359.004 233.382C359.712 230.241 360.674 229.065 364.348 229.894C379.217 233.195 379.23 233.008 375.597 247.59C374.261 252.762 371.348 258.443 372.497 263.054C373.833 268.173 381.194 267.959 385.79 270.352C406.47 281.164 413.644 295.987 407.165 315.421C403.865 325.218 399.256 329.735 387.019 335.175C387.153 335.549 387.193 336.057 387.46 336.258C404.44 348.567 408.541 358.779 403.611 376.515C398 396.71 386.244 406.895 366.673 408.512C359.135 409.307 351.519 408.901 344.109 407.309C337.509 405.746 334.944 407.697 333.982 414.193C333.074 420.327 330.923 426.222 329.681 432.356C328.946 435.898 327.703 437.048 323.856 436.246C309.161 433.239 309.161 433.386 312.834 418.964C313.518 415.47 314.411 412.02 315.506 408.632C317.51 403.46 316.041 401.589 310.657 399.945C303.803 397.873 301.185 399.517 300.156 406.374C299.235 412.509 297.164 418.403 295.828 424.538C295.106 427.892 293.65 428.614 290.257 427.879C275.562 424.725 275.562 424.832 279.102 410.504C283.524 392.674 283.524 392.687 265.849 388.384C260.506 387.047 255.082 385.563 249.658 384.374C246.679 383.732 246.425 382.623 247.28 379.749C247.788 378.039 248.509 376.194 249.11 374.604C254.734 359.741 254.721 362.574 267.813 365.061C272.382 365.929 276.136 364.927 277.312 360.182C284.205 332.582 290.885 304.915 297.631 277.315C297.947 275.534 297.846 273.704 297.337 271.969Z" fill="#FEFEFE"/>
<path d="M365.471 368.068C362.799 376.555 357.375 380.578 346.995 381.313C335.038 382.169 323.616 379.135 312.167 376.248C309.147 375.473 308.894 373.695 309.495 371.262C312.247 360.035 315.079 348.822 317.791 337.581C318.379 335.122 319.594 334.28 322.066 334.908C333.315 337.581 344.777 339.907 354.756 346.015C359.713 349.009 364.469 352.43 365.564 358.806C366.214 361.862 366.183 365.025 365.471 368.068Z" fill="#F6921A"/>
<path d="M340.288 318.628C323.041 317.051 323.041 317.051 326.928 301.132C328.518 294.677 330.161 288.248 331.804 281.819C332.232 280.162 332.312 277.809 334.877 278.451C347.395 281.218 361.703 282.14 369.318 293.768C370.059 294.843 370.602 296.043 370.921 297.31C372.04 301.25 371.984 305.43 370.76 309.339C366.379 319.149 355.825 322.544 341.37 318.842L340.288 318.628Z" fill="#F6931A"/>
<path d="M171 347C268.202 347 347 268.202 347 171C347 73.7979 268.202 -5 171 -5C73.7979 -5 -5 73.7979 -5 171C-5 268.202 73.7979 347 171 347Z" fill="#22282E" stroke="white" stroke-width="10"/>
<path d="M260.18 246.976C254.263 246.976 248.491 246.976 242.647 246.976C240.266 246.976 237.957 246.976 235.576 246.976C234.782 246.976 234.205 246.76 233.7 246.182C220.352 232.834 207.004 219.558 193.728 206.21C187.09 199.572 179.081 196.325 169.774 196.686C161.837 196.975 154.91 199.933 149.21 205.561C141.057 213.57 132.976 221.723 124.895 229.804C119.339 235.287 113.784 240.843 108.3 246.327C107.867 246.76 107.507 247.048 106.857 247.048C98.7761 247.048 90.7673 247.048 82.6862 247.048C82.4698 247.048 82.3255 247.048 81.8926 246.76C82.2533 246.471 82.6862 246.11 83.047 245.822C100.508 228.361 117.969 210.972 135.357 193.511C144.448 184.348 155.415 179.225 168.331 178.576C182.833 177.855 195.532 182.544 205.85 192.718C221.001 207.581 235.865 222.661 250.872 237.596C253.903 240.555 257.005 243.729 260.18 246.976Z" fill="#FEFEFE"/>
<path d="M82.1088 97.6932C90.4063 97.6932 98.7037 97.6932 107.001 97.6932C107.651 97.6932 107.939 97.9819 108.372 98.3426C113.206 103.177 118.04 108.011 122.875 112.845C131.461 121.431 140.119 130.017 148.705 138.603C160.61 150.508 180.38 150.797 192.429 138.964C205.994 125.616 219.414 112.051 232.834 98.5591C233.556 97.8376 234.205 97.6211 235.143 97.6211C242.863 97.6932 250.511 97.6211 258.232 97.6211C258.664 97.6211 259.025 97.6211 259.458 97.6211C259.386 98.054 259.097 98.2705 258.809 98.4869C246.399 110.897 233.916 123.307 221.506 135.717C215.662 141.562 209.962 147.55 203.829 153.106C193.151 162.774 180.38 166.887 166.094 165.66C154.261 164.65 144.015 159.888 135.573 151.519C118.834 134.851 102.095 118.112 85.4278 101.373C84.2734 100.219 82.9746 99.1363 81.748 98.054C81.8924 97.9818 81.9645 97.8375 82.1088 97.6932Z" fill="#FEFEFE"/>
</svg>
